<svg xmlns="http://www.w3.org/2000/svg" xmlns:xlink="http://www.w3.org/1999/xlink" viewBox="0 0 512 512"><defs><style>.cls-1{fill:none;}.cls-2{clip-path:url(#clip-path);}.cls-3{fill:#767676;}.cls-4{fill:#6a6a6a;}.cls-5{fill:#bfbfbf;}.cls-6{fill:#9a9a9a;}.cls-7{fill:#6d6d6d;}.cls-8{fill:#d6d6d6;}.cls-9{fill:#bdbdbd;}.cls-10{fill:#e9e9e9;}</style><clipPath id="clip-path" transform="translate(-1 -1)"><circle class="cls-1" cx="256" cy="256" r="253"/></clipPath></defs><title>sunshine-logo_1</title><g id="Layer_2" data-name="Layer 2"><g id="Layer_1-2" data-name="Layer 1"><g class="cls-2"><path class="cls-3" d="M236,1h41a22.47,22.47,0,0,0,3.71,1,274,274,0,0,1,44.16,8.06c97.16,26.33,171,109.77,185.32,209.31.89,6.21,1.87,12.41,2.81,18.61v39c-.36,1.4-.85,2.78-1.07,4.21-1.31,8.33-2.56,16.68-3.83,25-1.24-2.45-2-5.42-3.8-7.26Q447.79,242.64,391,186.55a10.77,10.77,0,0,0-2.27-1.91c-.41-.22-1.15.17-1.73.29-1.11-1.84-2.2-3.71-3.34-5.53-5.3-8.48-11.14-16.49-19.38-22.43-14.78-12.81-32.2-18.82-51.5-19.88-11.27-.62-22.09,1.9-32.82,5-18.44-36-57.89-58.68-99.42-54.3-28.43,3-51.42,15.83-69.07,37.8-27.29,34-28.92,81.87-4.75,118.08,2.31,3.46,4.77,6.82,7.16,10.23-2.65,1.38-5.35,2.67-7.94,4.16-35.11,20.31-47,66.2-26,100,1,1.55,1.88,3.12,2.9,4.63,4.9,7.27,11.46,12.9,18.23,18.32,1.29,1.85,2.33,3.94,3.89,5.5q59.27,59.41,118.63,118.73c1.88,1.88,3.56,3.95,5.34,5.93-10.5-1.69-21.16-2.75-31.49-5.18C96.06,482,18.85,397.66,3.78,294.57,3,289,1.93,283.52,1,278V236a28.2,28.2,0,0,0,1.08-3.68C3.42,223.76,4.4,215.15,6,206.65,25.78,102.39,113.66,18.74,218.94,3.84,224.65,3,230.31,2,236,1Z" transform="translate(-1 -1)"/><path class="cls-4" d="M229,511.1c-1.77-2-3.46-4-5.34-5.93Q164.34,445.81,105,386.45c-1.56-1.57-2.61-3.66-3.89-5.5,12,7.41,24.82,12.09,39.11,12.08q116.22,0,232.44-.07a87.05,87.05,0,0,0,14.42-1c41.84-7.1,67.09-46.65,59-85.28-1.68-8-5.47-15.63-8.29-23.43,2.68-1,4,1.1,5.42,2.56q25.56,25.49,51,51.1c1.66,1.68,2.54,4.13,3.79,6.22-.68,2-1.29,4.1-2.07,6.09a254.06,254.06,0,0,1-44.31,74.24c-42.95,49.76-97.2,79.19-162.58,87.71-3.71.48-7.39,1.25-11.08,1.88H235Z" transform="translate(-1 -1)"/><path class="cls-5" d="M437.8,283.2c2.82,7.8,6.6,15.39,8.29,23.43,8.1,38.63-17.15,78.18-59,85.28a87.05,87.05,0,0,1-14.42,1q-116.22.11-232.44.07c-14.28,0-27.12-4.68-39.11-12.08-6.76-5.42-13.33-11-18.23-18.32-1-1.51-1.93-3.09-2.9-4.63a35.8,35.8,0,0,0-.43-5.82c-2.47-10.51-3.16-21.09-.92-31.67,5.32-25.05,20.18-42.67,43-53.6,4.35-2.08,6.11-4.5,6.57-9.27,1.78-18.23,9.11-34.17,22.51-46.66,24.4-22.74,58.27-26.14,86.23-11.45,4.31,2.26,4.67,2.09,6.68-2.27,18.95-41,68.35-60.81,110.38-44.23,3.4,1.34,6.83,2.63,10.24,3.94,8.24,5.94,14.08,14,19.38,22.43,1.14,1.83,2.23,3.69,3.34,5.53,8.82,19.6,11.43,39.8,5.72,60.75-.89,3.25.42,4.5,3.28,5.37,9.66,2.94,18.7,7.32,26,14.3C427.75,270.81,432.58,277.22,437.8,283.2Zm-248.86,105a10.55,10.55,0,0,0,.47-2.08c-.22-1.48-.52-3-.75-4.43-1.92-12.44-.16-24.19,6.46-35.09a50.11,50.11,0,0,1,22.21-20.19,10.13,10.13,0,0,0,6.48-9.15,35.56,35.56,0,0,1,1.13-6.38c8.91-32,42.11-47.64,72.49-34.08,5.68,2.54,5.7,2.54,8.77-3.19a58,58,0,0,1,19.17-21.37C344,239.94,364,237.7,384.84,246.4a15.79,15.79,0,0,0,2.36.59,53.4,53.4,0,0,0-38.1-12.67c-23.1,1.35-40.74,12.32-51.81,33.06-2.25,4.21-2.62,4.36-7,2.26a50.94,50.94,0,0,0-30.56-4.74c-21.94,3.28-40.42,22.06-42.58,44.22-.41,4.17-2,6.44-5.71,8.32-14.3,7.17-23.87,18.44-27.59,34.19C181,364.06,182.44,376,188.94,388.22Z" transform="translate(-1 -1)"/><path class="cls-6" d="M113.91,253.86c-2.39-3.41-4.85-6.77-7.16-10.23-24.18-36.21-22.54-84.11,4.75-118.08,17.65-22,40.65-34.8,69.07-37.8,41.53-4.39,81,18.32,99.42,54.3-9.61,4.37-18.81,9.42-27,16.2-1.28-1.95-2.61-3.85-3.82-5.84a68,68,0,0,0-16.05-18.28c-28.94-22.88-67.88-18.21-91.75,5.7C121.73,159.51,116.26,192.1,128,216c-5,9.61-8.64,19.63-9.34,30.58C118.44,249.8,117.72,252.89,113.91,253.86Z" transform="translate(-1 -1)"/><path class="cls-7" d="M437.8,283.2c-5.23-6-10.05-12.39-15.78-17.86-7.3-7-16.34-11.36-26-14.3-2.86-.87-4.17-2.12-3.28-5.37,5.71-20.95,3.1-41.15-5.72-60.75.59-.11,1.33-.51,1.73-.29a10.77,10.77,0,0,1,2.27,1.91Q447.72,242.71,504.3,299c1.85,1.84,2.56,4.82,3.8,7.26A169.48,169.48,0,0,1,498,343.08c-1.24-2.09-2.13-4.54-3.79-6.22q-25.39-25.66-51-51.1C441.76,284.3,440.48,282.2,437.8,283.2Z" transform="translate(-1 -1)"/><path class="cls-8" d="M113.91,253.86c3.81-1,4.53-4.06,4.74-7.29.7-10.94,4.31-21,9.34-30.58,5.21-7.55,10.6-14.93,18.08-20.48,3.34-2.47,6.62-5,9.93-7.52,1.39-.53,2.81-1,4.17-1.59C182,177,203.62,177.23,225,188c4.68,2.73,5.2,2.82,7-1.06,5-11,12.46-20.3,21.08-28.69,8.17-6.78,17.37-11.83,27-16.2,10.73-3.06,21.55-5.58,32.82-5,19.3,1.06,36.72,7.06,51.5,19.88-3.41-1.31-6.84-2.6-10.24-3.94-42-16.58-91.43,3.22-110.38,44.23-2,4.36-2.38,4.53-6.68,2.27-28-14.69-61.83-11.29-86.23,11.45-13.41,12.49-20.73,28.43-22.51,46.66-.47,4.77-2.22,7.19-6.57,9.27-22.84,10.93-37.71,28.55-43,53.6-2.24,10.58-1.56,21.16.92,31.67A35.8,35.8,0,0,1,80,358C59,324.23,70.86,278.34,106,258,108.56,256.53,111.26,255.24,113.91,253.86Z" transform="translate(-1 -1)"/><path class="cls-8" d="M188.94,388.22c-6.49-12.23-8-24.16-5-36.59,3.72-15.75,13.29-27,27.59-34.19,3.75-1.88,5.3-4.14,5.71-8.32,2.16-22.17,20.64-40.95,42.58-44.22a50.94,50.94,0,0,1,30.56,4.74c4.34,2.11,4.72,2,7-2.26,11.07-20.75,28.71-31.72,51.81-33.06A53.4,53.4,0,0,1,387.2,247a15.79,15.79,0,0,1-2.36-.59c-20.87-8.7-40.79-6.46-59.47,5.85a58,58,0,0,0-19.17,21.37c-3.07,5.73-3.08,5.72-8.77,3.19-30.38-13.56-63.58,2-72.49,34.08a35.56,35.56,0,0,0-1.13,6.38,10.13,10.13,0,0,1-6.48,9.15,50.11,50.11,0,0,0-22.21,20.19c-6.62,10.9-8.38,22.65-6.46,35.09.23,1.48.53,3,.75,4.43A10.55,10.55,0,0,1,188.94,388.22Z" transform="translate(-1 -1)"/><path class="cls-9" d="M253,158.24c-8.62,8.39-16,17.64-21.08,28.69-1.78,3.89-2.29,3.79-7,1.06-.12-19.5-15.44-35.08-34.79-34.86-20.1.22-35.3,17.5-34.18,34.87-3.31,2.51-6.59,5-9.93,7.52-7.49,5.54-12.88,12.93-18.08,20.48-11.72-23.9-6.26-56.49,13.4-76.18,23.87-23.91,62.82-28.57,91.75-5.7a68,68,0,0,1,16.05,18.28C250.4,154.39,251.73,156.3,253,158.24Z" transform="translate(-1 -1)"/><path class="cls-10" d="M156,188c-1.12-17.37,14.07-34.65,34.18-34.87,19.36-.22,34.67,15.36,34.79,34.86-21.35-10.76-42.95-11-64.79-1.58C158.81,187,157.39,187.47,156,188Z" transform="translate(-1 -1)"/></g></g></g></svg>